<svg  fill="none" xmlns="http://www.w3.org/2000/svg">
<symbol id="left-arrow" viewBox="0 0 16 13">
    <path d="M5.21892 0.703796C5.44448 0.464132 5.7996 0.464132 6.02517 0.703796C6.24311 0.935364 6.24311 1.32077 6.02517 1.5518L1.93702 5.89545H15.4273C15.7418 5.89545 15.9999 6.16103 15.9999 6.49515C15.9999 6.82928 15.7418 7.10349 15.4273 7.10349H1.93702L6.02517 11.439C6.24311 11.6787 6.24311 12.0647 6.02517 12.2957C5.7996 12.5353 5.44448 12.5353 5.21892 12.2957L0.162971 6.92374C-0.0549748 6.69217 -0.0549748 6.30677 0.162971 6.07574L5.21892 0.703796Z" fill="#96918D"/>
</symbol>
<symbol id="right-arrow" viewBox= "0 0 24 19">
    <path d="M16.1714 0.976128C15.833 0.62368 15.3004 0.62368 14.962 0.976128C14.6351 1.31667 14.6351 1.88344 14.962 2.22319L21.0942 8.61091H0.858746C0.387035 8.61091 -8.39233e-05 9.00147 -8.39233e-05 9.49283C-8.39233e-05 9.98419 0.387035 10.3874 0.858746 10.3874H21.0942L14.962 16.7633C14.6351 17.1157 14.6351 17.6833 14.962 18.023C15.3004 18.3755 15.833 18.3755 16.1714 18.023L23.7553 10.1231C24.0822 9.78257 24.0822 9.21579 23.7553 8.87605L16.1714 0.976128Z" fill="#FCD3AC"/>
</symbol>
<symbol id="icon-play" viewBox= "0 0 43 43">
    <circle cx="21.5" cy="21.5" r="21.5" fill="white"/>
    <path d="M17 27V16L26.5 21.5L17 27Z" fill="#151F32"/>
</symbol>
</svg>